<svg width="140" height="50" viewBox="0 0 140 50" fill="none" xmlns="http://www.w3.org/2000/svg">
<path d="M14.256 6.368V9.56H9.24V23H5.496V9.56H0.48V6.368H14.256ZM27.6302 10.376C26.9102 12.808 26.1582 15.088 25.3742 17.216C24.5902 19.344 23.7342 21.408 22.8062 23.408C22.4702 24.128 22.1342 24.736 21.7982 25.232C21.4622 25.744 21.0942 26.16 20.6942 26.48C20.2942 26.816 19.8382 27.056 19.3262 27.2C18.8302 27.36 18.2462 27.44 17.5742 27.44C17.0142 27.44 16.4942 27.384 16.0142 27.272C15.5502 27.176 15.1662 27.064 14.8622 26.936L15.4862 24.08C15.8542 24.208 16.1822 24.296 16.4702 24.344C16.7582 24.392 17.0622 24.416 17.3822 24.416C18.0222 24.416 18.5102 24.24 18.8462 23.888C19.1982 23.552 19.4942 23.08 19.7342 22.472C18.9182 20.872 18.1022 19.08 17.2862 17.096C16.4702 15.096 15.7022 12.856 14.9822 10.376H18.7742C18.9342 11 19.1182 11.68 19.3262 12.416C19.5502 13.136 19.7822 13.872 20.0222 14.624C20.2622 15.36 20.5022 16.08 20.7422 16.784C20.9982 17.488 21.2382 18.128 21.4622 18.704C21.6702 18.128 21.8862 17.488 22.1102 16.784C22.3342 16.08 22.5502 15.36 22.7582 14.624C22.9822 13.872 23.1902 13.136 23.3822 12.416C23.5902 11.68 23.7742 11 23.9342 10.376H27.6302ZM37.6352 16.784C37.6352 15.68 37.3872 14.8 36.8912 14.144C36.3952 13.472 35.6592 13.136 34.6832 13.136C34.3632 13.136 34.0672 13.152 33.7952 13.184C33.5232 13.2 33.2992 13.224 33.1232 13.256V19.712C33.3472 19.856 33.6352 19.976 33.9872 20.072C34.3552 20.168 34.7232 20.216 35.0912 20.216C36.7872 20.216 37.6352 19.072 37.6352 16.784ZM41.2832 16.688C41.2832 17.664 41.1632 18.552 40.9232 19.352C40.6832 20.152 40.3312 20.84 39.8672 21.416C39.4032 21.992 38.8272 22.44 38.1392 22.76C37.4512 23.08 36.6592 23.24 35.7632 23.24C35.2672 23.24 34.8032 23.192 34.3712 23.096C33.9392 23 33.5232 22.864 33.1232 22.688V27.44H29.5472V10.808C29.8672 10.712 30.2352 10.624 30.6512 10.544C31.0672 10.448 31.4992 10.368 31.9472 10.304C32.4112 10.24 32.8752 10.192 33.3392 10.16C33.8192 10.112 34.2752 10.088 34.7072 10.088C35.7472 10.088 36.6752 10.248 37.4912 10.568C38.3072 10.872 38.9952 11.312 39.5552 11.888C40.1152 12.448 40.5392 13.136 40.8272 13.952C41.1312 14.768 41.2832 15.68 41.2832 16.688ZM55.0476 7.424C54.4556 7.552 53.8956 7.64 53.3676 7.688C52.8396 7.736 52.2956 7.808 51.7356 7.904C51.2556 7.984 50.7756 8.104 50.2956 8.264C49.8156 8.424 49.3676 8.648 48.9516 8.936C48.5516 9.208 48.1996 9.56 47.8956 9.992C47.5916 10.408 47.3756 10.928 47.2476 11.552C48.2876 11.056 49.2956 10.808 50.2716 10.808C51.0396 10.808 51.7516 10.936 52.4076 11.192C53.0636 11.448 53.6316 11.832 54.1116 12.344C54.6076 12.856 54.9916 13.496 55.2636 14.264C55.5516 15.016 55.6956 15.896 55.6956 16.904C55.6956 17.992 55.5356 18.936 55.2156 19.736C54.8956 20.536 54.4556 21.208 53.8956 21.752C53.3516 22.28 52.7116 22.68 51.9756 22.952C51.2556 23.208 50.4796 23.336 49.6476 23.336C47.4236 23.336 45.8316 22.664 44.8716 21.32C43.9116 19.96 43.4316 17.968 43.4316 15.344C43.4316 13.616 43.5996 12.152 43.9356 10.952C44.2716 9.736 44.7756 8.728 45.4476 7.928C46.1196 7.112 46.9516 6.472 47.9436 6.008C48.9356 5.544 50.0876 5.176 51.3996 4.904C51.9276 4.792 52.4556 4.712 52.9836 4.664C53.5276 4.6 54.0796 4.504 54.6396 4.376L55.0476 7.424ZM47.1756 14.48C47.1436 14.704 47.1196 14.96 47.1036 15.248C47.1036 15.536 47.1036 15.792 47.1036 16.016C47.1036 17.424 47.2956 18.488 47.6796 19.208C48.0796 19.928 48.7436 20.288 49.6716 20.288C50.4556 20.288 51.0556 19.984 51.4716 19.376C51.8876 18.768 52.0956 17.952 52.0956 16.928C52.0956 16.528 52.0476 16.144 51.9516 15.776C51.8556 15.392 51.7036 15.056 51.4956 14.768C51.2876 14.48 51.0316 14.248 50.7276 14.072C50.4236 13.896 50.0636 13.808 49.6476 13.808C49.2316 13.808 48.7916 13.856 48.3276 13.952C47.8796 14.048 47.4956 14.224 47.1756 14.48ZM70.2536 16.664C70.2536 17.656 70.1096 18.568 69.8216 19.4C69.5336 20.216 69.1176 20.92 68.5736 21.512C68.0296 22.088 67.3736 22.536 66.6056 22.856C65.8536 23.176 65.0056 23.336 64.0616 23.336C63.1336 23.336 62.2856 23.176 61.5176 22.856C60.7656 22.536 60.1176 22.088 59.5736 21.512C59.0296 20.92 58.6056 20.216 58.3016 19.4C57.9976 18.568 57.8456 17.656 57.8456 16.664C57.8456 15.672 57.9976 14.768 58.3016 13.952C58.6216 13.136 59.0536 12.44 59.5976 11.864C60.1576 11.288 60.8136 10.84 61.5656 10.52C62.3336 10.2 63.1656 10.04 64.0616 10.04C64.9736 10.04 65.8056 10.2 66.5576 10.52C67.3256 10.84 67.9816 11.288 68.5256 11.864C69.0696 12.44 69.4936 13.136 69.7976 13.952C70.1016 14.768 70.2536 15.672 70.2536 16.664ZM66.6056 16.664C66.6056 15.56 66.3816 14.696 65.9336 14.072C65.5016 13.432 64.8776 13.112 64.0616 13.112C63.2456 13.112 62.6136 13.432 62.1656 14.072C61.7176 14.696 61.4936 15.56 61.4936 16.664C61.4936 17.768 61.7176 18.648 62.1656 19.304C62.6136 19.944 63.2456 20.264 64.0616 20.264C64.8776 20.264 65.5016 19.944 65.9336 19.304C66.3816 18.648 66.6056 17.768 66.6056 16.664ZM86.5174 9.416C86.0374 9.416 85.5734 9.456 85.1254 9.536C84.6934 9.6 84.3094 9.72 83.9734 9.896C83.6374 10.056 83.3654 10.288 83.1574 10.592C82.9494 10.88 82.8454 11.248 82.8454 11.696C82.8454 12.544 83.1414 13.128 83.7334 13.448C84.3414 13.768 85.2374 13.928 86.4214 13.928H87.9814V9.44C87.7894 9.424 87.5814 9.416 87.3574 9.416C87.1334 9.416 86.8534 9.416 86.5174 9.416ZM86.6854 6.2C87.3574 6.2 88.1414 6.24 89.0374 6.32C89.9494 6.4 90.8454 6.536 91.7254 6.728V23H87.9814V17.024H86.8294C86.6214 17.024 86.4214 17.024 86.2294 17.024C86.0374 17.024 85.8054 17.008 85.5334 16.976C85.0054 17.696 84.4214 18.6 83.7814 19.688C83.1574 20.76 82.5734 21.864 82.0294 23H78.0694C78.3574 22.344 78.6614 21.696 78.9814 21.056C79.3174 20.416 79.6534 19.808 79.9894 19.232C80.3254 18.656 80.6534 18.128 80.9734 17.648C81.2934 17.152 81.5894 16.72 81.8614 16.352C81.5094 16.192 81.1574 15.984 80.8054 15.728C80.4694 15.456 80.1654 15.136 79.8934 14.768C79.6214 14.4 79.3974 13.968 79.2214 13.472C79.0614 12.96 78.9814 12.376 78.9814 11.72C78.9814 10.808 79.1574 10.008 79.5094 9.32C79.8774 8.632 80.3894 8.056 81.0454 7.592C81.7174 7.128 82.5254 6.784 83.4694 6.56C84.4294 6.32 85.5014 6.2 86.6854 6.2ZM94.1363 20.072H95.6963C96.1443 19.528 96.4883 18.856 96.7283 18.056C96.9843 17.24 97.1603 16.384 97.2563 15.488C97.3683 14.576 97.4323 13.672 97.4483 12.776C97.4643 11.88 97.4723 11.08 97.4723 10.376H107.312V20.072H109.448V26.6H106.4V23H97.1842V26.6H94.1363V20.072ZM103.736 20.072V13.304H100.808C100.776 13.864 100.736 14.448 100.688 15.056C100.656 15.648 100.584 16.24 100.472 16.832C100.376 17.408 100.24 17.976 100.064 18.536C99.8883 19.096 99.6563 19.608 99.3683 20.072H103.736ZM119.69 16.784C119.69 15.68 119.442 14.8 118.946 14.144C118.45 13.472 117.714 13.136 116.738 13.136C116.418 13.136 116.122 13.152 115.85 13.184C115.578 13.2 115.354 13.224 115.178 13.256V19.712C115.402 19.856 115.69 19.976 116.042 20.072C116.41 20.168 116.778 20.216 117.146 20.216C118.842 20.216 119.69 19.072 119.69 16.784ZM123.338 16.688C123.338 17.664 123.218 18.552 122.978 19.352C122.738 20.152 122.386 20.84 121.922 21.416C121.458 21.992 120.882 22.44 120.194 22.76C119.506 23.08 118.714 23.24 117.818 23.24C117.322 23.24 116.858 23.192 116.426 23.096C115.994 23 115.578 22.864 115.178 22.688V27.44H111.602V10.808C111.922 10.712 112.29 10.624 112.706 10.544C113.122 10.448 113.554 10.368 114.002 10.304C114.466 10.24 114.93 10.192 115.394 10.16C115.874 10.112 116.33 10.088 116.762 10.088C117.802 10.088 118.73 10.248 119.546 10.568C120.362 10.872 121.05 11.312 121.61 11.888C122.17 12.448 122.594 13.136 122.882 13.952C123.186 14.768 123.338 15.68 123.338 16.688ZM137.894 16.664C137.894 17.656 137.75 18.568 137.462 19.4C137.174 20.216 136.758 20.92 136.214 21.512C135.67 22.088 135.014 22.536 134.246 22.856C133.494 23.176 132.646 23.336 131.702 23.336C130.774 23.336 129.926 23.176 129.158 22.856C128.406 22.536 127.758 22.088 127.214 21.512C126.67 20.92 126.246 20.216 125.942 19.4C125.638 18.568 125.486 17.656 125.486 16.664C125.486 15.672 125.638 14.768 125.942 13.952C126.262 13.136 126.694 12.44 127.238 11.864C127.798 11.288 128.454 10.84 129.206 10.52C129.974 10.2 130.806 10.04 131.702 10.04C132.614 10.04 133.446 10.2 134.198 10.52C134.966 10.84 135.622 11.288 136.166 11.864C136.71 12.44 137.134 13.136 137.438 13.952C137.742 14.768 137.894 15.672 137.894 16.664ZM134.246 16.664C134.246 15.56 134.022 14.696 133.574 14.072C133.142 13.432 132.518 13.112 131.702 13.112C130.886 13.112 130.254 13.432 129.806 14.072C129.358 14.696 129.134 15.56 129.134 16.664C129.134 17.768 129.358 18.648 129.806 19.304C130.254 19.944 130.886 20.264 131.702 20.264C132.518 20.264 133.142 19.944 133.574 19.304C134.022 18.648 134.246 17.768 134.246 16.664Z" fill="#F35A05"/>
<path d="M4.91477 47.1431C4.22846 47.1431 3.63755 46.9877 3.14205 46.6768C2.64962 46.3629 2.27107 45.9305 2.00639 45.3796C1.74171 44.8287 1.60938 44.1978 1.60938 43.4869C1.60938 42.7667 1.74479 42.1312 2.01562 41.5803C2.28646 41.0263 2.66809 40.5939 3.16051 40.283C3.65294 39.9722 4.23307 39.8168 4.90092 39.8168C5.43951 39.8168 5.91963 39.9168 6.34126 40.1168C6.7629 40.3138 7.10298 40.5908 7.36151 40.9478C7.62311 41.3048 7.77853 41.7218 7.82777 42.1989H6.48438C6.41051 41.8665 6.24124 41.5803 5.97656 41.3402C5.71496 41.1001 5.36411 40.9801 4.92401 40.9801C4.5393 40.9801 4.2023 41.0817 3.913 41.2848C3.62678 41.4848 3.40365 41.7711 3.24361 42.1435C3.08357 42.5128 3.00355 42.9498 3.00355 43.4545C3.00355 43.9716 3.08203 44.4179 3.23899 44.7933C3.39595 45.1688 3.61754 45.4596 3.90376 45.6658C4.19306 45.872 4.53314 45.9751 4.92401 45.9751C5.18561 45.9751 5.42259 45.9274 5.63494 45.832C5.85038 45.7335 6.03042 45.5935 6.17507 45.4119C6.3228 45.2304 6.4259 45.0118 6.48438 44.7564H7.82777C7.77853 45.215 7.62926 45.6243 7.37997 45.9844C7.13068 46.3445 6.79676 46.6276 6.3782 46.8338C5.96271 47.04 5.47491 47.1431 4.91477 47.1431ZM12.49 47.1431C11.7914 47.1431 11.1897 46.9938 10.685 46.6953C10.1833 46.3937 9.79551 45.9705 9.5216 45.4258C9.25077 44.878 9.11535 44.2363 9.11535 43.5007C9.11535 42.7744 9.25077 42.1342 9.5216 41.5803C9.79551 41.0263 10.1771 40.5939 10.6665 40.283C11.1589 39.9722 11.7344 39.8168 12.3931 39.8168C12.7931 39.8168 13.1809 39.8829 13.5564 40.0153C13.9319 40.1476 14.2689 40.3554 14.5674 40.6385C14.8659 40.9216 15.1014 41.2894 15.2737 41.7418C15.4461 42.1912 15.5323 42.7375 15.5323 43.3807V43.87H9.89554V42.8359H14.1796C14.1796 42.4728 14.1058 42.1512 13.958 41.8711C13.8103 41.5879 13.6026 41.3648 13.3348 41.2017C13.0701 41.0386 12.7593 40.957 12.4023 40.957C12.0145 40.957 11.676 41.0524 11.3867 41.2433C11.1004 41.431 10.8788 41.6772 10.7219 41.9819C10.568 42.2835 10.4911 42.6113 10.4911 42.9652V43.7731C10.4911 44.247 10.5742 44.6502 10.7404 44.9826C10.9096 45.315 11.1451 45.5689 11.4467 45.7443C11.7483 45.9167 12.1007 46.0028 12.5038 46.0028C12.7654 46.0028 13.004 45.9659 13.2194 45.892C13.4348 45.8151 13.621 45.7012 13.778 45.5504C13.935 45.3996 14.055 45.2134 14.1381 44.9918L15.4445 45.2273C15.3399 45.612 15.1522 45.949 14.8813 46.2383C14.6136 46.5245 14.2766 46.7476 13.8703 46.9077C13.4672 47.0646 13.007 47.1431 12.49 47.1431ZM21.1732 45.2919L23.4629 39.9091H24.654L21.6856 47H20.6607L17.7524 39.9091H18.9296L21.1732 45.2919ZM18.5464 39.9091V47H17.1938V39.9091H18.5464ZM23.8369 47V39.9091H25.1803V47H23.8369ZM29.2135 47.157C28.7642 47.157 28.3579 47.0739 27.9948 46.9077C27.6316 46.7384 27.3438 46.4937 27.1315 46.1737C26.9222 45.8536 26.8176 45.4612 26.8176 44.9964C26.8176 44.5964 26.8945 44.267 27.0484 44.0085C27.2023 43.75 27.41 43.5453 27.6716 43.3945C27.9332 43.2437 28.2256 43.1299 28.5487 43.0529C28.8719 42.976 29.2012 42.9175 29.5367 42.8775C29.9614 42.8282 30.3061 42.7882 30.5708 42.7575C30.8354 42.7236 31.0278 42.6697 31.1478 42.5959C31.2678 42.522 31.3279 42.402 31.3279 42.2358V42.2035C31.3279 41.8003 31.214 41.4879 30.9862 41.2663C30.7616 41.0447 30.4261 40.9339 29.9798 40.9339C29.5151 40.9339 29.1489 41.037 28.8811 41.2433C28.6164 41.4464 28.4333 41.6726 28.3318 41.9219L27.0345 41.6264C27.1884 41.1955 27.4131 40.8478 27.7085 40.5831C28.0071 40.3153 28.3502 40.1214 28.738 40.0014C29.1258 39.8783 29.5336 39.8168 29.9614 39.8168C30.2445 39.8168 30.5446 39.8506 30.8616 39.9183C31.1817 39.983 31.4802 40.103 31.7572 40.2784C32.0373 40.4538 32.2665 40.7047 32.445 41.0309C32.6235 41.354 32.7128 41.7741 32.7128 42.2912V47H31.3648V46.0305H31.3094C31.2201 46.209 31.0863 46.3845 30.9078 46.5568C30.7293 46.7292 30.5 46.8723 30.2199 46.9862C29.9398 47.1 29.6044 47.157 29.2135 47.157ZM29.5136 46.049C29.8952 46.049 30.2214 45.9736 30.4923 45.8228C30.7662 45.672 30.9739 45.475 31.1155 45.2319C31.2601 44.9857 31.3325 44.7225 31.3325 44.4425V43.5284C31.2832 43.5777 31.1878 43.6238 31.0462 43.6669C30.9078 43.7069 30.7493 43.7423 30.5708 43.7731C30.3922 43.8008 30.2184 43.8269 30.0491 43.8516C29.8798 43.8731 29.7382 43.8916 29.6244 43.907C29.3566 43.9408 29.1119 43.9978 28.8904 44.0778C28.6718 44.1578 28.4964 44.2732 28.3641 44.424C28.2348 44.5717 28.1702 44.7687 28.1702 45.0149C28.1702 45.3565 28.2964 45.6151 28.5487 45.7905C28.8011 45.9628 29.1227 46.049 29.5136 46.049ZM39.4871 42.859V44.0547H35.6462V42.859H39.4871ZM36.0339 39.9091V47H34.6813V39.9091H36.0339ZM40.4519 39.9091V47H39.1039V39.9091H40.4519ZM41.5491 41.1001V39.9091H47.532V41.1001H45.2192V47H43.8711V41.1001H41.5491ZM50.4746 45.0657L53.6 39.9091H55.0865V47H53.7338V41.8388L50.6223 47H49.122V39.9091H50.4746V45.0657ZM57.0723 47V39.9091H58.4526V42.8821H59.1174L61.4579 39.9091H63.166L60.4192 43.3576L63.1984 47H61.4856L59.3482 44.1655H58.4526V47H57.0723ZM66.4641 47.157C66.0148 47.157 65.6085 47.0739 65.2453 46.9077C64.8822 46.7384 64.5944 46.4937 64.3821 46.1737C64.1728 45.8536 64.0681 45.4612 64.0681 44.9964C64.0681 44.5964 64.1451 44.267 64.299 44.0085C64.4529 43.75 64.6606 43.5453 64.9222 43.3945C65.1838 43.2437 65.4762 43.1299 65.7993 43.0529C66.1225 42.976 66.4518 42.9175 66.7872 42.8775C67.212 42.8282 67.5567 42.7882 67.8213 42.7575C68.086 42.7236 68.2784 42.6697 68.3984 42.5959C68.5184 42.522 68.5784 42.402 68.5784 42.2358V42.2035C68.5784 41.8003 68.4646 41.4879 68.2368 41.2663C68.0122 41.0447 67.6767 40.9339 67.2304 40.9339C66.7657 40.9339 66.3995 41.037 66.1317 41.2433C65.867 41.4464 65.6839 41.6726 65.5823 41.9219L64.2851 41.6264C64.439 41.1955 64.6637 40.8478 64.9591 40.5831C65.2577 40.3153 65.6008 40.1214 65.9886 40.0014C66.3764 39.8783 66.7842 39.8168 67.212 39.8168C67.4951 39.8168 67.7952 39.8506 68.1122 39.9183C68.4323 39.983 68.7308 40.103 69.0078 40.2784C69.2878 40.4538 69.5171 40.7047 69.6956 41.0309C69.8741 41.354 69.9634 41.7741 69.9634 42.2912V47H68.6154V46.0305H68.56C68.4707 46.209 68.3368 46.3845 68.1583 46.5568C67.9798 46.7292 67.7506 46.8723 67.4705 46.9862C67.1904 47.1 66.855 47.157 66.4641 47.157ZM66.7642 46.049C67.1458 46.049 67.472 45.9736 67.7429 45.8228C68.0168 45.672 68.2245 45.475 68.3661 45.2319C68.5107 44.9857 68.5831 44.7225 68.5831 44.4425V43.5284C68.5338 43.5777 68.4384 43.6238 68.2968 43.6669C68.1583 43.7069 67.9998 43.7423 67.8213 43.7731C67.6428 43.8008 67.4689 43.8269 67.2997 43.8516C67.1304 43.8731 66.9888 43.8916 66.875 43.907C66.6072 43.9408 66.3625 43.9978 66.1409 44.0778C65.9224 44.1578 65.747 44.2732 65.6147 44.424C65.4854 44.5717 65.4208 44.7687 65.4208 45.0149C65.4208 45.3565 65.547 45.6151 65.7993 45.7905C66.0517 45.9628 66.3733 46.049 66.7642 46.049ZM75.0822 45.1257H76.4949C76.5133 45.415 76.6441 45.6381 76.8873 45.7951C77.1335 45.9521 77.452 46.0305 77.8429 46.0305C78.2399 46.0305 78.5784 45.9459 78.8585 45.7766C79.1386 45.6043 79.2786 45.3381 79.2786 44.978C79.2786 44.7625 79.2247 44.5748 79.117 44.4148C79.0124 44.2517 78.8631 44.1255 78.6692 44.0362C78.4784 43.947 78.2522 43.9023 77.9906 43.9023H76.8365V42.8175H77.9906C78.3815 42.8175 78.6738 42.7282 78.8677 42.5497C79.0616 42.3712 79.1586 42.1481 79.1586 41.8803C79.1586 41.591 79.0539 41.3587 78.8447 41.1832C78.6385 41.0047 78.3507 40.9155 77.9814 40.9155C77.6059 40.9155 77.2935 41.0001 77.0442 41.1694C76.7949 41.3356 76.6641 41.551 76.6518 41.8157H75.2577C75.2669 41.4187 75.3869 41.0709 75.6177 40.7724C75.8516 40.4708 76.1656 40.2369 76.5595 40.0707C76.9565 39.9014 77.4074 39.8168 77.9121 39.8168C78.4384 39.8168 78.8939 39.9014 79.2786 40.0707C79.6633 40.2399 79.9603 40.4738 80.1696 40.7724C80.3819 41.0709 80.4881 41.4141 80.4881 41.8018C80.4881 42.1927 80.3712 42.5128 80.1373 42.7621C79.9064 43.0083 79.6048 43.1853 79.2324 43.293V43.3668C79.5064 43.3853 79.7495 43.4684 79.9618 43.6161C80.1742 43.7638 80.3404 43.9593 80.4604 44.2024C80.5805 44.4455 80.6405 44.721 80.6405 45.0288C80.6405 45.4627 80.5204 45.8382 80.2804 46.1552C80.0434 46.4722 79.7141 46.7169 79.2925 46.8892C78.8739 47.0585 78.3953 47.1431 77.8567 47.1431C77.3335 47.1431 76.8642 47.0616 76.4487 46.8984C76.0363 46.7322 75.7085 46.4983 75.4654 46.1967C75.2253 45.8951 75.0976 45.5381 75.0822 45.1257ZM84.2594 47.157C83.81 47.157 83.4038 47.0739 83.0406 46.9077C82.6775 46.7384 82.3897 46.4937 82.1773 46.1737C81.9681 45.8536 81.8634 45.4612 81.8634 44.9964C81.8634 44.5964 81.9404 44.267 82.0942 44.0085C82.2481 43.75 82.4559 43.5453 82.7175 43.3945C82.9791 43.2437 83.2714 43.1299 83.5946 43.0529C83.9177 42.976 84.2471 42.9175 84.5825 42.8775C85.0072 42.8282 85.3519 42.7882 85.6166 42.7575C85.8813 42.7236 86.0736 42.6697 86.1937 42.5959C86.3137 42.522 86.3737 42.402 86.3737 42.2358V42.2035C86.3737 41.8003 86.2598 41.4879 86.0321 41.2663C85.8074 41.0447 85.472 40.9339 85.0257 40.9339C84.561 40.9339 84.1947 41.037 83.927 41.2433C83.6623 41.4464 83.4792 41.6726 83.3776 41.9219L82.0804 41.6264C82.2343 41.1955 82.4589 40.8478 82.7544 40.5831C83.0529 40.3153 83.3961 40.1214 83.7839 40.0014C84.1717 39.8783 84.5794 39.8168 85.0072 39.8168C85.2904 39.8168 85.5905 39.8506 85.9075 39.9183C86.2275 39.983 86.5261 40.103 86.803 40.2784C87.0831 40.4538 87.3124 40.7047 87.4909 41.0309C87.6694 41.354 87.7587 41.7741 87.7587 42.2912V47H86.4106V46.0305H86.3552C86.266 46.209 86.1321 46.3845 85.9536 46.5568C85.7751 46.7292 85.5458 46.8723 85.2658 46.9862C84.9857 47.1 84.6502 47.157 84.2594 47.157ZM84.5594 46.049C84.9411 46.049 85.2673 45.9736 85.5381 45.8228C85.812 45.672 86.0198 45.475 86.1614 45.2319C86.306 44.9857 86.3783 44.7225 86.3783 44.4425V43.5284C86.3291 43.5777 86.2337 43.6238 86.0921 43.6669C85.9536 43.7069 85.7951 43.7423 85.6166 43.7731C85.4381 43.8008 85.2642 43.8269 85.095 43.8516C84.9257 43.8731 84.7841 43.8916 84.6702 43.907C84.4025 43.9408 84.1578 43.9978 83.9362 44.0778C83.7177 44.1578 83.5423 44.2732 83.4099 44.424C83.2807 44.5717 83.216 44.7687 83.216 45.0149C83.216 45.3565 83.3422 45.6151 83.5946 45.7905C83.847 45.9628 84.1686 46.049 84.5594 46.049ZM97.277 45.2919L99.5668 39.9091H100.758L97.7894 47H96.7646L93.8562 39.9091H95.0334L97.277 45.2919ZM94.6502 39.9091V47H93.2976V39.9091H94.6502ZM99.9407 47V39.9091H101.284V47H99.9407ZM104.606 45.0657L107.732 39.9091H109.218V47H107.866V41.8388L104.754 47H103.254V39.9091H104.606V45.0657ZM116.01 42.859V44.0547H112.169V42.859H116.01ZM112.557 39.9091V47H111.204V39.9091H112.557ZM116.975 39.9091V47H115.627V39.9091H116.975ZM119.57 49.6591C119.364 49.6591 119.176 49.6422 119.007 49.6083C118.837 49.5775 118.711 49.5437 118.628 49.5067L118.961 48.3757C119.213 48.4434 119.438 48.4727 119.635 48.4634C119.831 48.4542 120.005 48.3803 120.156 48.2418C120.31 48.1033 120.445 47.8771 120.562 47.5632L120.733 47.0923L118.139 39.9091H119.616L121.412 45.4119H121.486L123.282 39.9091H124.763L121.841 47.9464C121.706 48.3157 121.533 48.6281 121.324 48.8835C121.115 49.142 120.866 49.3359 120.576 49.4652C120.287 49.5945 119.952 49.6591 119.57 49.6591ZM125.794 41.1001V39.9091H131.777V41.1001H129.464V47H128.116V41.1001H125.794ZM134.239 49.6591C134.033 49.6591 133.845 49.6422 133.676 49.6083C133.507 49.5775 133.38 49.5437 133.297 49.5067L133.63 48.3757C133.882 48.4434 134.107 48.4727 134.304 48.4634C134.501 48.4542 134.675 48.3803 134.825 48.2418C134.979 48.1033 135.115 47.8771 135.232 47.5632L135.402 47.0923L132.808 39.9091H134.285L136.081 45.4119H136.155L137.951 39.9091H139.433L136.51 47.9464C136.375 48.3157 136.203 48.6281 135.993 48.8835C135.784 49.142 135.535 49.3359 135.245 49.4652C134.956 49.5945 134.621 49.6591 134.239 49.6591Z" fill="#07040C"/>
</svg>
